<svg width="20" height="20" viewBox="0 0 20 20" fill="none" xmlns="http://www.w3.org/2000/svg">
<g id="Add-user">
<path id="Combined Shape" opacity="0.3" fill-rule="evenodd" clip-rule="evenodd" d="M7.50008 9.16667C5.65913 9.16667 4.16675 7.67428 4.16675 5.83333C4.16675 3.99238 5.65913 2.5 7.50008 2.5C9.34103 2.5 10.8334 3.99238 10.8334 5.83333C10.8334 7.67428 9.34103 9.16667 7.50008 9.16667ZM15.8334 9.16667C15.3732 9.16667 15.0001 8.79358 15.0001 8.33334V6.66667H13.3334C12.8732 6.66667 12.5001 6.29358 12.5001 5.83334C12.5001 5.3731 12.8732 5.00001 13.3334 5.00001H15.0001V3.33334C15.0001 2.8731 15.3732 2.50001 15.8334 2.50001C16.2936 2.50001 16.6667 2.8731 16.6667 3.33334V5.00001H18.3334C18.7936 5.00001 19.1667 5.3731 19.1667 5.83334C19.1667 6.29358 18.7936 6.66667 18.3334 6.66667H16.6667V8.33334C16.6667 8.79358 16.2936 9.16667 15.8334 9.16667Z" fill="white"/>
<path id="Mask Copy" d="M0.00054307 16.8327C0.323549 12.8554 3.55159 10.8333 7.48612 10.8333C11.476 10.8333 14.7541 12.7443 14.9983 16.8333C15.008 16.9962 14.9983 17.5 14.3722 17.5C11.2843 17.5 6.6956 17.5 0.606252 17.5C0.39726 17.5 -0.0170515 17.0493 0.00054307 16.8327Z" fill="white"/>
</g>
</svg>
