<svg width="25" height="24" viewBox="0 0 25 24" fill="none" xmlns="http://www.w3.org/2000/svg">
<g id="Group-chat">
<path id="Combined Shape" fill-rule="evenodd" clip-rule="evenodd" d="M23.1454 17.8074C23.4678 18.0977 23.9816 17.8676 23.9798 17.4338L23.9624 13.0362V5.93092C23.9624 4.62288 22.7842 3.5625 21.3309 3.5625H9.05016C7.59678 3.5625 6.41858 4.62288 6.41858 5.93092V9.1875H13.6667C15.3235 9.1875 16.6667 10.5306 16.6667 12.1875V15.4046H20.4755L23.1454 17.8074Z" fill="white"/>
<path id="Combined Shape_2" opacity="0.3" fill-rule="evenodd" clip-rule="evenodd" d="M2.06775 17.625V12.9375C2.06775 11.902 3.00049 11.0625 4.15108 11.0625H12.4844C13.635 11.0625 14.5677 11.902 14.5677 12.9375V17.625C14.5677 18.6605 13.635 19.5 12.4844 19.5H4.27163L2.92132 20.6632C2.59723 20.9424 2.09499 20.7121 2.09499 20.2844V17.929C2.07707 17.83 2.06775 17.7285 2.06775 17.625ZM6.24998 14.3437C6.24998 14.0849 6.45984 13.875 6.71873 13.875H12.0312C12.2901 13.875 12.5 14.0849 12.5 14.3437C12.5 14.6026 12.2901 14.8125 12.0312 14.8125H6.71873C6.45984 14.8125 6.24998 14.6026 6.24998 14.3437ZM9.84372 15.75C9.58484 15.75 9.37498 15.9599 9.37498 16.2188C9.37498 16.4776 9.58484 16.6875 9.84372 16.6875H12.0312C12.2901 16.6875 12.5 16.4776 12.5 16.2188C12.5 15.9599 12.2901 15.75 12.0312 15.75H9.84372Z" fill="white"/>
</g>
</svg>
