<svg width="16" height="14" viewBox="0 0 16 14" fill="none" xmlns="http://www.w3.org/2000/svg">
<path id="Vector" d="M8 14.0016C5.87833 14.0016 3.84331 13.2797 2.34315 11.9948C0.842901 10.7098 0 8.9671 0 7.15C0 5.33289 0.842901 3.59 2.34315 2.30518C3.84353 1.02029 5.87833 0.298386 8 0.298386C10.1217 0.298386 12.1567 1.02029 13.6568 2.30518C15.1571 3.59019 16 5.33289 16 7.15C15.9974 8.96649 15.1538 10.7081 13.654 11.9924C12.1543 13.2769 10.1207 13.9994 8 14.0016ZM11.0851 5.38778V5.38767C11.2254 5.27161 11.3053 5.11218 11.3071 4.94513C11.3088 4.77808 11.2321 4.6174 11.0941 4.49925C10.9562 4.3811 10.7685 4.31541 10.5735 4.31687C10.3784 4.31833 10.1923 4.38684 10.0568 4.50697L8 6.26913L5.94323 4.50697C5.75853 4.3542 5.49346 4.29612 5.2457 4.3543C4.99805 4.41249 4.8046 4.57818 4.73665 4.79028C4.66871 5.00248 4.73653 5.22949 4.9149 5.38768L6.97167 7.14985L4.9149 8.91202C4.77464 9.02808 4.69465 9.18751 4.69294 9.35456C4.69124 9.52161 4.76794 9.68229 4.90589 9.80044C5.04383 9.91859 5.23145 9.98428 5.4265 9.98282C5.62155 9.98136 5.8077 9.91285 5.94322 9.79273L7.99999 8.03056L10.0568 9.79273C10.1923 9.91285 10.3784 9.98136 10.5735 9.98282C10.7685 9.98428 10.9561 9.91859 11.0941 9.80044C11.2321 9.6823 11.3088 9.52162 11.307 9.35456C11.3053 9.18751 11.2253 9.02809 11.0851 8.91202L9.02832 7.14985L11.0851 5.38778Z" fill="#E6E6E6"/>
</svg>
