<svg xmlns="http://www.w3.org/2000/svg" width="47" height="47" viewBox="0 0 47 47" fill="none">
<path fill-rule="evenodd" clip-rule="evenodd" d="M23.5 47C36.4787 47 47 36.4787 47 23.5C47 10.5213 36.4787 0 23.5 0C10.5213 0 0 10.5213 0 23.5C0 36.4787 10.5213 47 23.5 47ZM23.5 43.0833C34.3156 43.0833 43.0833 34.3156 43.0833 23.5C43.0833 12.6844 34.3156 3.91667 23.5 3.91667C12.6844 3.91667 3.91667 12.6844 3.91667 23.5C3.91667 34.3156 12.6844 43.0833 23.5 43.0833Z" fill="url(#paint0_angular_91_1050)"/>
<path fill-rule="evenodd" clip-rule="evenodd" d="M44.614 18.8014C45.6866 18.663 46.6684 19.4203 46.8068 20.493C46.9354 21.4902 47 22.4946 47 23.5C47 24.5816 46.1232 25.4583 45.0416 25.4583C43.9601 25.4583 43.0833 24.5816 43.0833 23.5C43.0833 22.6621 43.0295 21.8252 42.9223 20.9942C42.7839 19.9215 43.5413 18.9398 44.614 18.8014Z" fill="#107B3D"/>
<defs>
<radialGradient id="paint0_angular_91_1050" cx="0" cy="0" r="1" gradientUnits="userSpaceOnUse" gradientTransform="translate(23.5 23.5) scale(23.5)">
<stop stop-color="#CFDFD6" stop-opacity="0"/>
<stop offset="1" stop-color="#107B3D"/>
</radialGradient>
</defs>
</svg>