<svg width="24" height="24" viewBox="0 0 24 24" fill="none" xmlns="http://www.w3.org/2000/svg">
<g id="search">
<path id="Vector" d="M19.03 17.97L15.021 13.96C15.7 12.9369 16.0423 11.7272 16 10.5C16 7.056 13.944 5 10.5 5C7.056 5 5 7.056 5 10.5C5 13.944 7.056 16 10.5 16C11.7275 16.0425 12.9376 15.7002 13.961 15.021L17.97 19.031L19.03 17.97ZM6.5 10.5C6.5 7.883 7.883 6.5 10.5 6.5C13.117 6.5 14.5 7.883 14.5 10.5C14.5 13.117 13.117 14.5 10.5 14.5C7.883 14.5 6.5 13.117 6.5 10.5Z" fill="#524A3E" fill-opacity="0.82"/>
</g>
</svg>
